<svg xmlns="http://www.w3.org/2000/svg" width="402" height="108"><path d="M48.875 7.75c3.572 1.984 3.572 1.984 7.477 1.727C58.363 8.445 60.145 7.287 62 6c7.609-2.536 15.32-1.783 22.5 1.625C92.085 11.906 96.624 17.533 99 26c1.087 8.034.325 13.942-4.102 20.781-1.177 2.248-1.177 2.248-.148 4.778L96 54c3.349 7.341 4.482 14.593 2.309 22.523-3.289 8.063-8.352 13.969-16.34 17.59-9.722 2.904-17.923 1.386-26.66-3.261L53 90c-3.555 1.424-3.555 1.424-6 4-7.21 2.403-16.577 2.179-23.5-1-6.037-3.556-11.611-9.138-14.062-15.832-1.745-8.643-.88-16.146 2.796-24.055 1.027-2.273 1.027-2.273.141-5.425L11 45c-3.306-6.929-3.241-15.63-1.16-22.957 3.338-7.317 8.558-11.81 15.285-15.98 7.799-2.832 16.53-2.134 23.75 1.687" fill="#8A81FB"/><path d="m51.688 21.563 3.224-.061c7.713.005 13.33 1.117 19.147 6.35l1.379 1.773c.473.59.946 1.18 1.433 1.79C80.473 36.473 79.46 43.058 79 49c-1.474 5.54-5.339 8.296-10.098 11.055-3.988 1.982-7.191 2.051-11.59 2.008l-3.574-.028L51 62l.105 2.266.083 2.984.105 2.953c-.34 3.238-.954 4.553-3.293 6.797-1.937.496-1.937.496-4 .438l-2.062-.004C39.405 76.867 38.604 76.026 37 74c-.381-2.2-.381-2.2-.388-4.791l-.029-2.943.019-3.172-.01-3.262q-.002-3.414.017-6.829c.016-3.49 0-6.978-.02-10.468q.004-3.315.013-6.629l-.019-3.172.029-2.943.007-2.59c1.282-7.405 9.288-5.676 15.069-5.639" fill="#FAF9FD"/><path d="m313.907 23.482 3.519-.013 3.853-.016 2.008.026c2.008.02 4.016-.002 6.024-.026l3.865.016 3.528.013c4.945.777 7.992 3.32 11.609 6.643C350.77 34.313 351.33 38.171 351 43c-1.361 4.105-3.615 7.422-6 11l1.438 1.684c2.163 3.207 2.393 6.206 2.937 9.976.708 2.652 1.671 3.498 3.625 5.34-.062 2.563-.062 2.563-1 5-1.75 1.437-1.75 1.437-4 2-4.05-.988-5.83-2.512-8-6-.651-2.84-1.003-5.65-1.375-8.54-.42-2.808-.42-2.808-3.625-4.46-2.754-.3-5.426-.51-8.187-.625l-2.272-.117A769 769 0 0 0 319 58l.07 3.395q.029 2.209.055 4.417c.017.738.034 1.476.05 2.237.036 3.863.019 5.66-2.175 8.951-2.937.437-2.937.437-6 0-2.652-2.776-3.377-4.723-3.388-8.521l-.029-2.69.019-2.883-.01-2.98a889 889 0 0 1 .017-6.234c.016-3.18 0-6.36-.02-9.54q.004-3.03.013-6.058l-.019-2.882.029-2.69.007-2.36c.71-4.027 2.278-5.966 6.288-6.68M319 33v16c2.939.135 5.872.234 8.813.312l2.525.127c2.318.047 4.39.03 6.662-.439 2.623-2.943 2.956-4.643 3.438-8.563-.171-3.396-.171-3.396-1.918-5.636-3.689-2.637-6.858-2.241-11.27-2.051l-2.402.055c-1.95.047-3.9.118-5.848.195" fill="#ECEDFC"/><path d="m363.041 23.757 3.865.013h2.062q2.16.006 4.318.024c2.205.018 4.41.02 6.616.02 10.803.038 10.803.038 13.098 1.186.125 2.875.125 2.875 0 6-2 2-2 2-4.338 2.227-.953-.01-1.907-.02-2.889-.032l-3.125-.02-3.273-.05-3.297-.027c-2.693-.024-5.385-.06-8.078-.098v12l4.05-.105q2.632-.043 5.263-.083l2.67-.076 2.568-.029 2.364-.048c2.64.432 3.531 1.188 5.085 3.341-.187 3.125-.187 3.125-1 6-2.349 1.174-3.738 1.115-6.352 1.098l-2.578-.01-2.695-.026-2.719-.013q-3.328-.02-6.656-.049v13l4.96-.07q3.208-.029 6.415-.055c1.08-.017 2.16-.034 3.273-.05l3.125-.02 2.889-.032C391 68 391 68 393 70c.125 3.125.125 3.125 0 6-4.406 2.203-10.386 1.186-15.286 1.185-2.205.002-4.41.02-6.616.04q-2.096.005-4.192.005l-3.865.013C360 77 360 77 358 75c-.254-2.087-.254-2.087-.259-4.693l-.019-2.953.012-3.198-.005-3.273q-.002-3.43.01-6.86c.011-3.509 0-7.017-.012-10.527q0-3.326.007-6.652l-.012-3.198.02-2.953c0-.86.002-1.72.004-2.606.44-3.621 1.822-4.053 5.295-4.33M266 24c2.39 3.586 2.296 6.195 2.309 10.336l.076 4.414q.043 3.47.071 6.938c.022 2.237.061 4.474.103 6.71v2.081c.089 4.332.823 7.055 3.441 10.521 3.631 2.507 6.653 2.187 10.875 1.617 3.238-.94 4.465-2.781 6.125-5.617 1.493-2.985 1.198-6.067 1.246-9.344l.1-4.465q.072-3.525.13-7.05c.04-2.267.092-4.532.145-6.797l.026-2.137c.126-4.98.126-4.98 2.353-7.207 3.063-.187 3.063-.187 6 0 2.056 2.056 1.188 6.37 1.203 9.2l.017 2.508q.014 2.637.02 5.273c.01 2.678.04 5.355.072 8.033q.01 2.56.016 5.123l.038 2.415c-.025 6.283-1.5 10.337-5.741 15.136-5.469 4.817-10.028 6.732-17.344 6.582-6.318-.747-11.71-2.983-15.781-7.957-5.857-7.952-4.776-18.863-4.687-28.188l.001-3.992c.045-9.71.045-9.71 1.186-13.133 2.789-1.394 4.92-1.257 8-1" fill="#EBECFB"/><path d="M112 24c4.043-.673 8.158-.463 12.25-.437l3.434-.061c6.39.004 10.533.084 15.316 4.498 3.577 3.81 5.336 7.78 5.625 13-.357 6.638-3.484 10.913-8.125 15.438-4.538 2.836-9.064 2.678-14.312 2.624l-3.52-.027L120 59l.07 3.176q.029 2.069.055 4.136l.05 2.092c.037 3.767-.031 5.38-2.175 8.596-3 .375-3 .375-6 0-2.12-3.179-2.252-3.967-2.259-7.607l-.019-2.822.012-3.04-.005-3.127q-.002-3.273.01-6.546c.011-3.345 0-6.689-.012-10.034q0-3.178.007-6.355l-.012-3.04.02-2.822c0-.819.002-1.638.004-2.482C110 27 110 27 112 24m8 9v16l6.75.313 3.797.175c3.59-.163 3.59-.163 5.875-2.82 1.936-3.274 2.202-4.923 1.578-8.668-1.491-2.792-1.491-2.792-4-5-3.5-.604-3.5-.604-7.25-.312z" fill="#ECEDFC"/><path d="m210 26 2 2c-.375 3.625-.375 3.625-1 7-2.904 1.162-4.076.976-7.125 0-5.962-1.872-11.738-1.01-17.312 1.625-4.278 3.965-5.704 8.147-5.938 13.875.223 5.68 1.703 9.95 5.938 13.875 6 4 13.057 3.07 20 2L210 66c2 2 2 2 2.438 4.938C212 74 212 74 209.75 75.812c-6.94 2.998-15.034 3.425-22.355 1.504-7.222-2.995-13.458-7.643-16.672-14.921-2.54-8.419-2.706-17.443 1.277-25.395 4.757-6.913 10.608-11.93 18.934-13.684C197.876 22.253 203.61 23.111 210 26" fill="#ECECFB"/><path d="M219 24c3.08-.257 5.211-.394 8 1 .902 2.706 1.122 4.239 1.114 7.012v2.427l-.016 2.604-.005 2.678c-.005 2.822-.018 5.644-.03 8.467l-.014 5.74Q228.032 60.963 228 68c.656-.01 1.312-.02 1.988-.032a1668 1668 0 0 1 8.887-.093c1.033-.017 2.065-.034 3.129-.05l2.988-.02 2.761-.032C250 68 250 68 252 70c.25 2.5.25 2.5 0 5-3.448 3.448-8.439 2.304-13.098 2.322l-2.188-.006c-2.206-.003-4.41.02-6.616.045q-2.096.004-4.192.002l-3.865.01L219 77c-2.12-3.179-2.252-3.967-2.259-7.607l-.019-2.822.012-3.04-.005-3.127q-.002-3.273.01-6.546c.011-3.345 0-6.689-.012-10.034q0-3.178.007-6.355l-.012-3.04.02-2.822c0-.819.002-1.638.004-2.482C217 27 217 27 219 24" fill="#EDEDFC"/><path d="M159.063 23.563 162 24c2.12 3.179 2.252 3.967 2.259 7.607l.019 2.822-.012 3.04.005 3.127q.002 3.273-.01 6.546c-.011 3.345 0 6.689.012 10.034q0 3.178-.007 6.355l.012 3.04-.02 2.822-.004 2.482C164 74 164 74 162 77c-3.625.188-3.625.188-7 0-1.699-2.968-2.254-5.112-2.275-8.521l-.029-2.69.003-2.883-.013-2.98q-.008-3.117-.002-6.234c.003-3.18-.02-6.36-.045-9.54q-.004-3.03-.002-6.058l-.028-2.882.019-2.69-.002-2.36c.718-4.148 2.293-6.008 6.436-6.6" fill="#EDEEFC"/><path d="M50 36c12.469-.37 12.469-.37 14.898 1.324C66.6 39.912 66.314 41.985 66 45c-2 3-2 3-5 4-3.671.133-7.325.043-11 0z" fill="#887EFB"/><path d="M50 36c12.462-.37 12.462-.37 14.906 1.313C66.544 39.838 66.196 42.069 66 45h-1l-.937-2.937C63.305 39.159 63.305 39.159 62 38a104 104 0 0 0-5.062-.562L52 37v10h11c-2 2-2 2-4.602 2.195L50 49z" fill="#9B93EB"/><path d="m36 4.75 3.625-.016c3.233.255 5.47.88 8.375 2.266l-3 1-1 2V7H28v2l-8 1c5.147-4.194 9.376-5.279 16-5.25" fill="#A19BE6"/><path d="m44 88 3 1c2 .04 4 .044 6 0-4.308 4.77-4.308 4.77-8 5-2.25-.937-2.25-.937-4-2h2z" fill="#9B94F7"/><path d="M193 23c8.571-.286 8.571-.286 12 2l-2.937.375L199 26l-1 2-2-1v-2z" fill="#F3F5FC"/><path d="m33 6-5 1v2l-8 1c4.065-3.312 7.74-5.948 13-4" fill="#BBB7EE"/><path d="m81 7 6 2-1 2h-2l-1 2-2-2z" fill="#9991F1"/><path d="m76 53 1 3-3 1-1 3-4-1c3.75-3 3.75-3 6-3z" fill="#958EEB"/><path d="M61 7v2c-2.561 2.296-3.48 3-7 3 1-3 1-3 2.938-4.187C59 7 59 7 61 7" fill="#B4B1EF"/></svg>